PathFileType        4      (X/Y/Z)      C:\Users\pc\Desktop\IMUTRC\Sujet_02\Sujet_02_velo_60.trc         
DataRate	CameraRate	NumFrames	NumMarkers	Units	OrigDataRate	OrigDataStartFrame	OrigNumFrames
60.0	60.0	4	64	mm	60.0	1	1250
Frame#	Time	pHipOrigin			pRightASI			pLeftASI			pRightCSI			pLeftCSI			pRightIschialTub			pLeftIschialTub			pSacrum			pL5SpinalProcess			pL3SpinalProcess			pT12SpinalProcess			pIJ			pT4SpinalProcess			pT8SpinalProcess			pPX			pC7SpinalProcess			pTopOfHead			pRightAuricularis			pLeftAuricularis			pBackOfHead			pRightAcromion			pLeftAcromion			pRightArmLatEpicondyle			pRightArmMedEpicondyle			pLeftArmLatEpicondyle			pLeftArmMedEpicondyle			pRightUlnarStyloid			pRightRadialStyloid			pRightOlecranon			pLeftUlnarStyloid			pLeftRadialStyloid			pLeftOlecranon			pRightTopOfHand			pRightPinky			pRightBallHand			pLeftTopOfHand			pLeftPinky			pLeftBallHand			pRightGreaterTrochanter			pRightKneeLatEpicondyle			pRightKneeMedEpicondyle			pRightPatella			pLeftGreaterTrochanter			pLeftKneeLatEpicondyle			pLeftKneeMedEpicondyle			pLeftPatella			pRightTibialTub			pRightLatMalleolus			pRightMedMalleolus			pLeftTibialTub			pLeftLatMalleolus			pLeftMedMalleolus			pRightHeelFoot			pRightFirstMetatarsal			pRightFifthMetatarsal			pRightPivotFoot			pRightHeelCenter			pRightToe			pLeftHeelFoot			pLeftFirstMetatarsal			pLeftFifthMetatarsal			pLeftPivotFoot			pLeftHeelCenter			pLeftToe			
		X1	Y1	Z1	X2	Y2	Z2	X3	Y3	Z3	X4	Y4	Z4	X5	Y5	Z5	X6	Y6	Z6	X7	Y7	Z7	X8	Y8	Z8	X9	Y9	Z9	X10	Y10	Z10	X11	Y11	Z11	X12	Y12	Z12	X13	Y13	Z13	X14	Y14	Z14	X15	Y15	Z15	X16	Y16	Z16	X17	Y17	Z17	X18	Y18	Z18	X19	Y19	Z19	X20	Y20	Z20	X21	Y21	Z21	X22	Y22	Z22	X23	Y23	Z23	X24	Y24	Z24	X25	Y25	Z25	X26	Y26	Z26	X27	Y27	Z27	X28	Y28	Z28	X29	Y29	Z29	X30	Y30	Z30	X31	Y31	Z31	X32	Y32	Z32	X33	Y33	Z33	X34	Y34	Z34	X35	Y35	Z35	X36	Y36	Z36	X37	Y37	Z37	X38	Y38	Z38	X39	Y39	Z39	X40	Y40	Z40	X41	Y41	Z41	X42	Y42	Z42	X43	Y43	Z43	X44	Y44	Z44	X45	Y45	Z45	X46	Y46	Z46	X47	Y47	Z47	X48	Y48	Z48	X49	Y49	Z49	X50	Y50	Z50	X51	Y51	Z51	X52	Y52	Z52	X53	Y53	Z53	X54	Y54	Z54	X55	Y55	Z55	X56	Y56	Z56	X57	Y57	Z57	X58	Y58	Z58	X59	Y59	Z59	X60	Y60	Z60	X61	Y61	Z61	X62	Y62	Z62	X63	Y63	Z63	X64	Y64	Z64	
1	0.0	0.0	1250.02827	7.654215598496017E-14	47.161190000000005	1365.10842	146.90113000000008	48.472809999999996	1370.46895	-142.05384999999993	-13.743469999999993	1425.32876	121.69527000000008	-12.659960000000007	1429.77686	-115.19420999999991	-45.73552	1177.60418	57.65413000000007	-45.222280000000005	1179.7712	-60.73357999999993	-74.19191	1257.38473	-0.17107999999991846	-54.34658	1373.7765	2.0529700000000872	-12.60293	1487.94423	10.89213000000009	36.09799	1588.02633	21.499120000000094	296.99577	1633.24861	43.283370000000076	174.78726	1733.7299	46.13471000000009	102.19209	1675.22036	34.21610000000009	201.24771	1549.19105	26.859640000000084	224.74276	1768.5733	54.91684000000009	460.60576	1802.10508	76.92920000000008	374.09605	1760.98873	128.7095700000001	381.33846	1790.87079	3.079450000000086	361.6642	1823.03393	76.18785000000008	191.95233000000002	1711.71754	249.43539000000013	233.5249	1755.68523	-151.4632799999999	267.45587	1427.952	293.0609200000001	229.70410000000004	1404.62802	245.8426900000001	325.22405	1466.04593	-134.41224999999994	283.13825	1451.16192	-87.47916999999993	370.38931	1169.73448	355.22017000000005	411.61971	1184.10524	316.1567800000001	225.82627000000002	1416.71771	289.0690400000001	445.83581	1216.78162	-179.17831999999996	481.3065	1233.03427	-135.49575999999993	283.99365	1457.66298	-133.67090999999994	554.30086	1084.53639	342.104	469.44492	1101.1312	370.44633	409.62377	1142.53268	345.12642000000005	636.76166	1184.27632	-95.74805999999997	565.59217	1172.7569	-151.23516999999995	492.54079	1197.05034	-153.51624999999996	12.774010000000011	1231.83671	179.7485900000001	371.0166	964.60895	215.56144000000003	387.3833	963.92463	130.53443000000001	405.51784	1005.098	174.78726000000003	18.93290999999999	1222.08512	-175.69967999999992	367.8231	941.51308	-151.29219999999998	377.85982	950.75143	-65.75193999999998	400.84164	985.59482	-113.14123999999997	404.32027	907.52508	174.78726000000003	100.99453	607.16473	106.58316000000005	121.125	609.50283	41.23040000000003	426.33263	906.89779	-112.91313999999997	299.44792	494.30862	-135.7809	307.48871	493.73835	-67.80490999999999	2.7372900000000016	554.87112	29.311790000000034	137.77684	427.01696	28.39936000000002	106.241	422.56886	110.34693000000003	138.91737	406.94351	73.67867000000001	30.623410000000003	523.1642	38.322030000000034	195.37394	347.40749	92.15537	231.92815	388.46681	-83.88647999999999	411.50566	340.45022	-80.00865000000002	392.0595	339.08157	-165.71999	425.53426	333.09376	-126.88471000000001	272.24612	375.92091	-92.83968999999999	504.91561	311.65166	-144.56303	
2	0.017	0.0	1250.02827	7.654215598496017E-14	47.50336000000001	1366.07788	146.04573000000008	48.58686999999999	1369.38544	-143.02330999999992	-13.287249999999993	1426.24119	120.44068000000009	-12.431850000000008	1428.97848	-116.44879999999992	-45.849579999999996	1178.11743	58.224400000000074	-45.450390000000006	1179.42904	-60.22033999999993	-74.19191	1257.49878	-0.17107999999991846	-54.11847	1373.83353	1.1975600000000874	-12.37482	1488.00126	9.580510000000091	36.21204	1588.14038	20.073450000000093	296.99577	1633.81888	42.77013000000008	174.55915	1734.07206	44.99417000000009	102.13507	1675.39144	32.84746000000009	201.47582	1549.59024	26.004240000000085	224.45763	1769.08654	54.00441000000009	460.32063	1802.67535	76.13083000000009	373.86794	1761.559	128.02525000000009	380.9963	1791.44106	2.338100000000086	361.37907	1823.60419	75.44651000000009	191.66720000000004	1711.94565	248.3518800000001	234.03814	1756.14145	-152.5467899999999	267.51289	1428.00903	291.40714000000014	229.76113000000004	1404.74208	244.18892000000008	325.68027	1466.44511	-136.35116999999994	283.48041	1451.333	-89.53212999999992	370.61741	1169.79151	353.0531500000001	411.79079	1184.16227	313.98976000000005	225.88330000000002	1416.83177	287.4152600000001	445.72176	1216.83865	-181.45939999999993	481.24948	1232.92022	-137.71980999999994	284.39284	1458.00514	-135.66684999999995	554.52896	1084.59341	339.87995	469.67303	1101.18822	368.22229	409.85188	1142.58971	342.9594000000001	636.64761	1184.16227	-97.91507999999997	565.47812	1172.69988	-153.45921999999993	492.42674	1197.05034	-155.74028999999993	13.17320000000001	1234.85913	180.1477800000001	377.28955	976.58458	221.89142000000004	393.71328	974.36054	136.92144000000002	410.87836	1016.84553	180.26183000000003	16.42372999999999	1219.63296	-175.58562999999992	354.13666	925.60259	-152.71786999999998	365.82716	935.46823	-67.46274999999997	389.43627	968.71488	-115.59339999999997	410.30809	918.93045	179.86264000000003	107.66667	619.88172	103.38966000000005	128.31038	623.47441	38.265010000000025	413.78673	892.01378	-113.93961999999998	292.31957	478.05597	-140.4571	299.44792	477.2576	-72.42407999999999	10.036720000000003	567.53108	26.460450000000037	145.81762	440.47529	26.175320000000017	114.28178	436.19828	108.12288000000002	147.07221	420.62995	71.51165000000002	38.15095	536.05227	35.64177000000004	203.87094	361.49312	90.27348000000002	224.00142	372.38525	-88.50564999999999	403.5219	323.96946	-84.17161000000002	384.24683	322.54379	-169.93997	417.60753	316.55597	-131.04767	264.31939	359.72529	-97.34480999999998	496.98888	294.9428	-148.49788	
3	0.033	0.0	1250.02827	7.654215598496017E-14	47.90254000000001	1366.99031	145.13330000000008	48.64388999999999	1368.2449	-143.87870999999993	-12.831039999999993	1427.15362	119.18609000000008	-12.203740000000007	1428.12308	-117.76041999999991	-45.963629999999995	1178.63067	58.794670000000075	-45.62147000000001	1179.08688	-59.65006999999993	-74.13489	1257.66986	-0.17107999999991844	-53.89036	1373.89056	0.3421600000000874	-12.14672	1488.05829	8.32592000000009	36.3261	1588.25444	18.647780000000093	296.99577	1634.44618	42.25689000000008	174.33104	1734.47125	43.91066000000009	102.07804	1675.61955	31.535840000000096	201.70392	1549.98943	25.091810000000084	224.1725	1769.54275	53.091990000000095	460.03549	1803.24561	75.33245000000008	373.58281	1762.18629	127.28390000000009	380.65414	1791.9543	1.5967500000000863	361.09393	1824.17446	74.70516000000009	191.38207000000003	1712.11673	247.21134000000012	234.49435	1756.59766	-153.57326999999992	267.62695	1428.12308	289.7533600000001	229.87518000000003	1404.85613	242.47811000000007	326.13648	1466.78728	-138.23304999999993	283.87959	1451.50408	-91.52806999999993	370.84552	1169.79151	350.88613000000004	411.96187	1184.2193	311.82274000000007	225.99736000000001	1416.88879	285.7614800000001	445.66473	1216.89568	-183.74046999999993	481.13542	1232.86319	-140.00087999999994	284.84905	1458.3473	-137.60575999999995	554.75707	1084.70747	337.6559	469.90114	1101.30228	366.05527	410.02296	1142.64673	340.79238000000004	636.47653	1184.04822	-100.13912999999997	565.36406	1172.64285	-155.68326999999994	492.31268	1196.99331	-158.02136999999993	13.51536000000001	1237.88155	180.43291000000008	383.3344	988.78833	227.99329000000003	399.81515	985.02456	143.08033000000003	416.01078	1028.87819	185.50830000000002	13.857519999999989	1217.29486	-175.4145499999999	339.82292	910.20535	-153.74434999999997	353.1672	920.64126	-68.83138999999997	377.40361	952.34818	-117.76041999999997	416.29591	930.33582	184.93803000000003	114.39584	632.82681	100.25318000000004	135.66685	637.56004	35.41367000000003	401.29785	877.18681	-115.02312999999997	285.24824	461.91738	-145.1333	291.46416	460.83387	-76.98622999999999	17.39319	580.19104	23.666140000000034	153.85841	453.93362	23.95127000000002	122.32257	449.82769	105.89884000000002	155.28408	434.25936	69.40166000000002	45.62147	548.94033	32.96151000000003	212.36794	375.57875	88.39160000000001	216.13171	356.3607	-93.18184999999998	395.48111	307.54573	-88.39160000000001	376.43415	306.06303	-174.15996	409.6808	300.01819	-135.21063	256.44969	343.58669	-101.90696	489.00513	278.17691	-152.48976	
4	0.05	0.0	1250.02827	7.654215598496017E-14	48.073620000000005	1367.73166	144.5060100000001	48.92902999999999	1367.33247	-144.5630299999999	-12.545899999999993	1427.83795	118.15961000000009	-11.861580000000007	1427.49578	-118.72986999999992	-46.077679999999994	1179.02986	59.19386000000007	-45.73552000000001	1178.85877	-59.25087999999993	-74.13489	1257.78392	-0.22810999999991843	-53.71928	1373.94758	-0.3421599999999126	-11.91861	1488.11531	7.356460000000093	36.44015	1588.31146	17.62129000000009	296.93874	1634.84536	42.31391000000008	174.15996	1734.69936	43.39742000000009	102.07804	1675.73361	30.680440000000097	201.93203	1550.27456	24.806670000000086	223.88736	1769.88491	52.80685000000009	459.80739	1803.70183	75.16137000000009	373.3547	1762.64251	127.22687000000009	380.31198	1792.35349	1.5397200000000864	360.8088	1824.63068	74.64813000000008	191.03990000000002	1712.23078	246.69810000000012	235.0076	1756.99685	-154.08650999999992	267.62695	1428.18011	288.6128200000001	229.93221000000003	1404.97018	241.2805500000001	326.5927	1467.01538	-139.54466999999994	284.27878	1451.61814	-92.95373999999993	371.0166	1169.73448	349.28938000000005	412.13295	1184.27632	310.16897000000006	226.05438000000004	1416.94582	284.62094000000013	445.66473	1216.9527	-185.45126999999994	481.19245	1232.74914	-141.65465999999995	285.24824	1458.57541	-139.03142999999994	554.92815	1084.76449	336.05915	470.07222	1101.30228	364.45852	410.19404	1142.64673	339.13860000000005	636.53355	1183.99119	-101.79289999999997	565.36406	1172.58582	-157.33703999999994	492.36971	1196.99331	-159.67513999999994	13.743470000000011	1240.39073	180.6610200000001	389.7214	1001.79045	233.06868000000003	406.37324	996.88614	148.26978000000003	421.42833	1041.93734	189.84234000000004	11.51941999999999	1215.47	-175.30049999999991	325.79432	896.2908	-154.54272999999998	340.6213	906.95482	-69.91489999999996	365.37094	937.29309	-119.47121999999997	422.79697	942.88172	189.32910000000004	122.49365	645.31569	99.34075000000003	143.99276	651.01837	34.61529000000004	388.80897	863.38631	-115.99258999999998	276.40908	447.31851	-148.61194	282.05474	446.06392	-80.40783999999998	26.11829	591.93857	22.696680000000036	163.8381	466.99277	23.723160000000018	132.13118	462.82981	105.61370000000001	165.3208	447.48959	69.17355000000002	54.68874	560.973	32.163140000000034	222.91791	389.37924	88.56268000000001	206.26607	342.104	-96.71752	385.27331	292.14849	-91.58510000000001	366.3404	290.77984	-177.41049	399.53002	284.56392	-138.40413	246.46999	329.10188	-105.38559	478.79732	262.2094	-155.51218	
